<svg width="124" height="124" viewBox="0 0 124 124" fill="none" xmlns="http://www.w3.org/2000/svg">
<circle cx="62" cy="62" r="62" fill="#84EAF6"/>
<mask id="mask0_3451_457" style="mask-type:alpha" maskUnits="userSpaceOnUse" x="0" y="0" width="124" height="124">
<circle cx="62" cy="62" r="62" fill="white"/>
</mask>
<g mask="url(#mask0_3451_457)">
<path opacity="0.3" fill-rule="evenodd" clip-rule="evenodd" d="M62.0001 27.8999C74.2968 27.8999 83.7001 37.3032 83.7001 49.5999C83.7001 61.8966 74.2968 71.2999 62.0001 71.2999C49.7034 71.2999 40.3001 61.8966 40.3001 49.5999C40.3001 37.3032 49.7034 27.8999 62.0001 27.8999ZM62.0001 130.613C43.9168 130.613 28.0034 121.21 18.6001 107.467C18.6001 93 47.5334 85.0433 62.0001 85.0433C76.4668 85.0433 105.4 93 105.4 107.467C95.9968 121.21 80.0834 130.613 62.0001 130.613Z" fill="#04677B"/>
</g>
</svg>
